<svg width="50" height="50" viewBox="0 0 50 50" fill="none" xmlns="http://www.w3.org/2000/svg">
<g id="IMAGE" clip-path="url(#clip0_3210_313)">
<path id="Vector" d="M50 24.8241C50 11.2294 38.8071 0.20874 25 0.20874C11.1929 0.20874 0 11.2294 0 24.8241C0 38.4188 11.1929 49.4395 25 49.4395C38.8071 49.4395 50 38.4188 50 24.8241Z" fill="#A5BEFF"/>
<path id="Vector_2" d="M33.0369 17.7247L25.2244 15.417C25.1078 15.3825 24.9846 15.3754 24.8647 15.3961C24.7447 15.4169 24.6313 15.465 24.5336 15.5366C24.4359 15.6082 24.3565 15.7013 24.3018 15.8084C24.2472 15.9156 24.2187 16.0338 24.2187 16.1538V20.7518C24.2184 20.7636 24.2184 20.7753 24.2187 20.7871V26.5635C23.419 25.8595 22.398 25.4471 21.3266 25.3952C20.2551 25.3433 19.198 25.655 18.3319 26.2782C17.4658 26.9014 16.8432 27.7984 16.5681 28.8194C16.2929 29.8403 16.382 30.9233 16.8204 31.8873C17.2586 32.8514 18.0197 33.6381 18.9764 34.1161C19.933 34.594 21.0273 34.7342 22.0763 34.5132C23.1254 34.2923 24.0655 33.7235 24.7399 32.9021C25.4142 32.0806 25.7818 31.0561 25.7812 29.9999V21.803L32.5879 23.8136C32.7046 23.8481 32.8279 23.8552 32.9478 23.8344C33.0677 23.8137 33.1811 23.7656 33.2788 23.694C33.3765 23.6224 33.4559 23.5293 33.5106 23.4221C33.5652 23.315 33.5937 23.1968 33.5937 23.0768V18.4614C33.5937 18.296 33.5396 18.135 33.4393 18.0023C33.339 17.8695 33.1979 17.7722 33.0369 17.7247Z" fill="#0033B6"/>
</g>
<defs>
<clipPath id="clip0_3210_313">
<rect width="50" height="50" fill="white"/>
</clipPath>
</defs>
</svg>
